<svg xmlns="http://www.w3.org/2000/svg" xmlns:xlink="http://www.w3.org/1999/xlink" aria-hidden="true" role="img" class="iconify iconify--logos" width="35.93" height="32" preserveAspectRatio="xMidYMid meet" viewBox="0 0 256 228"><path fill="#00D8FF" d="M210.483 73.824a171.49 171.49 0 0 0-8.24-2.597c.465-1.9.893-3.777 1.273-5.621c6.238-30.281 2.16-54.676-11.769-62.708c-13.355-7.7-35.196.329-57.254 19.526a171.23 171.23 0 0 0-6.375 5.848a155.866 155.866 0 0 0-4.241-3.917C100.759 3.829 77.587-4.822 63.673 3.233C50.33 10.957 46.379 33.89 51.995 62.588a170.974 170.974 0 0 0 1.892 8.48c-3.28.932-6.445 1.924-9.474 2.98C17.309 83.498 0 98.307 0 113.668c0 15.865 18.582 31.778 46.812 41.427a145.52 145.52 0 0 0 6.921 2.165a167.467 167.467 0 0 0-2.01 9.138c-5.354 28.2-1.173 50.591 12.134 58.266c13.744 7.926 36.812-.22 59.273-19.855a145.567 145.567 0 0 0 5.342-4.923a168.064 168.064 0 0 0 6.92 6.314c21.758 18.722 43.246 26.282 56.54 18.586c13.731-7.949 18.194-32.003 12.4-61.268a145.016 145.016 0 0 0-1.535-6.842c1.62-.48 3.21-.974 4.76-1.488c29.348-9.723 48.443-25.443 48.443-41.52c0-15.417-17.868-30.326-45.517-39.844Zm-6.365 70.984c-1.596.54-3.233 1.06-4.905 1.563c-3.268-10.izeOf-8.726-19.49-16.264-27.942c7.024-10.5 13.2-21.294 18.468-32.292c4.65 1.37 9.117 2.876 13.37 4.498c22.023 8.348 35.703 20.872 35.703 31.296c0 10.64-14.025 23.47-46.372 22.877Zm-43.497 58.783c-14.308 13.71-28.586 21.27-38.637 21.27c-3.756 0-7.029-.87-9.718-2.684c-9.765-6.348-13.613-25.613-9.033-52.092a166.36 166.36 0 0 1 1.976-8.99c9.897 2.354 20.404 4.085 31.316 5.14c6.47 9.082 13.578 17.638 21.254 25.55a164.666 164.666 0 0 1 2.842 12.006Zm71.574-97.22c2.645 9.107 4.898 18.696 6.706 28.696c-6.988-1.763-14.282-3.25-21.848-4.452c2.583-5.265 4.993-10.701 7.184-16.275a166.4 166.4 0 0 0 7.958-7.969Zm-152.8-24.22c.365-2.033.77-4.06 1.218-6.077c3.607 2.025 7.38 3.975 11.289 5.842a184.27 184.27 0 0 0-2.408 7.004c-3.518-2.12-6.94-4.296-10.1-6.769Zm-8.13-54.43c3.084-1.745 8.637-1.64 16.04 1.247a133.133 133.133 0 0 1 17.027 9.09c-1.95 3.01-3.826 6.12-5.613 9.32c-7.944-3.538-15.64-6.497-23.007-8.796c-5.19-1.583-10.043-2.643-14.442-3.175c2.16-3.538 5.082-6.275 9.996-7.686Zm-25.956 65.977c0-8.765 11.614-19.25 31.232-27.08c3.174-1.26 6.512-2.437 9.98-3.53c2.851 9.23 6.339 18.617 10.422 28.007c-3.976 9.193-7.352 18.53-10.098 27.795c-13.91-4.042-25.98-9.568-34.394-16.24c-4.618-3.577-7.142-7.11-7.142-8.952Zm24.356 51.803c-3.416-1.053-6.72-2.178-9.897-3.375c3.116-8.823 6.969-17.769 11.495-26.719c1.508 3.09 3.07 6.18 4.686 9.25c-2.268 6.92-4.286 13.867-6.284 20.844Zm17.36 37.38c-8.963-5.38-12.372-25.063-7.662-51.305c.57-3.11 1.225-6.218 1.953-9.305c9.477 2.197 19.538 3.805 29.998 4.786c6.327 9.174 13.3 17.783 20.837 25.71c-12.776 12.26-25.276 20.544-35.636 21.604c-3.37.33-6.4-.03-9.49-1.49Zm68.52 17.624c-5.325 3.07-16.508 1.308-30.125-7.302a167.885 167.885 0 0 1-9.516-6.635a186.33 186.33 0 0 0 5.897-8.763a194.168 194.168 0 0 0 23.516 2.822c1.786 4.967 3.393 9.798 4.836 14.44c2.048 6.502 3.014 11.867 2.474 14.5c-.965.475-2.15.79-3.48.938Zm30.443-49.747c1.712 5.874 3.175 11.8 4.387 17.747c-5.505-1.038-11.146-1.888-16.892-2.542c1.956-3.86 3.804-7.793 5.537-11.788a155.26 155.26 0 0 0 6.968-3.417Zm-27.012-64.72c-4.576 9.397-8.49 19.088-11.69 28.933c-9.633-1.049-19.093-2.695-28.253-4.916c3.045-9.37 6.718-18.62 10.978-27.63c9.097 1.617 18.408 3.022 28.965 3.613Zm-61.63-9.086c-4.073-9.297-7.424-18.703-10.025-28.072c9.077 2.197 18.432 3.822 28.003 4.852c-3.245 8.854-5.993 17.942-8.225 27.177a196.083 196.083 0 0 1-9.753-3.957Zm40.617 14.48c3.218-9.848 7.068-19.534 11.496-28.917c5.406 1.046 10.89 1.885 16.42 2.506c-1.937 3.773-3.78 7.622-5.522 11.538a156.54 156.54 0 0 0-22.394 14.873Zm56.75-27.527a216.66 216.66 0 0 1 4.71-15.395c4.52 1.73 8.886 3.59 13.075 5.568c-2.65 5.35-5.45 10.61-8.4 15.764a206.43 206.43 0 0 0-9.385-5.937Zm-111.63 25.04a200.638 200.638 0 0 0-9.124 5.763c2.887-5.253 5.97-10.4 9.24-15.416c1.523 3.18 3.106 6.367 4.748 9.55c-1.63.027-3.257.064-4.864.103Zm14.19-33.487c1.634-2.887 3.319-5.74 5.054-8.555a198.89 198.89 0 0 1 8.6 5.398a215.23 215.23 0 0 0-5.1 15.278c-2.96-3.975-5.8-7.997-8.554-12.12Z"></path></svg>
